<svg width="460" height="352" viewBox="0 0 460 352" fill="none" xmlns="http://www.w3.org/2000/svg">
<path d="M362.265 186.157L362.265 186.157C353.114 177.382 347.714 165.408 347.195 152.741C346.677 140.074 351.079 127.698 359.481 118.205C359.482 118.204 359.483 118.204 359.483 118.203L459.691 6.97217H600.014L431.608 184.569C427.171 189.246 421.852 192.998 415.958 195.611C410.065 198.225 403.712 199.646 397.267 199.794C390.822 199.942 384.411 198.813 378.404 196.472C372.397 194.132 366.912 190.626 362.265 186.157Z" stroke="white" stroke-opacity="0.3"/>
<path d="M362.265 364.315L362.265 364.315C366.912 359.846 372.397 356.34 378.404 353.999C384.411 351.659 390.822 350.53 397.267 350.678C403.712 350.826 410.065 352.247 415.958 354.86C421.852 357.474 427.171 361.227 431.608 365.904C431.608 365.904 431.608 365.904 431.608 365.904L600.014 543.5H459.691L359.483 432.269C359.483 432.268 359.482 432.268 359.481 432.267C351.079 422.774 346.677 410.399 347.195 397.732C347.714 385.065 353.114 373.09 362.265 364.315Z" stroke="white" stroke-opacity="0.3"/>
<path d="M167.775 341.627L167.775 341.627L167.784 341.619C189.764 318.569 204.348 289.472 209.663 258.068C212.248 245.871 218.365 234.705 227.252 225.96C236.14 217.214 247.405 211.277 259.644 208.889C269.952 207.033 280.557 207.739 290.528 210.944C300.5 214.148 309.532 219.754 316.83 227.268C324.127 234.782 329.467 243.974 332.379 254.035C335.291 264.096 335.686 274.719 333.53 284.969L333.529 284.976C331.128 297.233 325.189 308.517 316.447 317.436C307.708 326.353 296.548 332.516 284.347 335.163C252.923 340.465 223.777 354.968 200.599 376.839L200.593 376.844L200.588 376.849L168.674 408.764L168.668 408.77L168.662 408.776C147.151 431.81 132.871 460.649 127.589 491.719C124.942 503.921 118.779 515.079 109.863 523.819C100.943 532.561 89.659 538.501 77.4027 540.902L77.4002 540.902C67.0703 542.98 56.387 542.472 46.3005 539.424C36.214 536.376 27.0368 530.883 19.586 523.432C12.1353 515.981 6.64213 506.804 3.59432 496.718C0.546503 486.632 0.0387954 475.948 2.11677 465.618L2.11726 465.616C4.51832 453.359 10.4564 442.075 19.1988 433.156C27.9286 424.249 39.0729 418.09 51.2582 415.438H52.2079H52.2496L52.2907 415.431C83.7102 410.154 112.821 395.564 135.852 373.55L135.852 373.55L135.86 373.542L167.775 341.627Z" stroke="white" stroke-opacity="0.3"/>
<path d="M127.379 51.8348V51.8759L127.386 51.9164C132.583 83.3208 147.105 112.435 169.066 135.478L169.066 135.478L169.075 135.488L201.191 167.403L201.198 167.41C224.226 189.421 253.333 204.011 284.748 209.29C296.96 211.888 308.144 218.005 316.919 226.887C325.697 235.77 331.68 247.031 334.13 259.277C336.154 269.625 335.603 280.312 332.527 290.397C329.45 300.483 323.941 309.658 316.484 317.115C309.028 324.571 299.853 330.081 289.767 333.158C279.681 336.234 268.994 336.785 258.646 334.761C246.4 332.311 235.14 326.328 226.256 317.55C217.374 308.775 211.257 297.592 208.659 285.38C203.38 253.965 188.79 224.857 166.779 201.829L166.779 201.829L166.771 201.821L134.856 169.905L134.856 169.905L134.848 169.898C111.772 147.84 82.5869 133.247 51.0963 128.019C38.9109 125.409 27.7581 119.284 19.0173 110.402C10.2738 101.516 4.32755 90.2625 1.91559 78.0324L1.91396 78.0247C-0.305374 67.6315 0.0929574 56.8494 3.07305 46.6483C6.05315 36.4472 11.5215 27.1464 18.9868 19.5825C26.452 12.0185 35.68 6.4289 45.8411 3.31502C56.0021 0.201144 66.7777 -0.339351 77.1991 1.74319C89.4351 4.19199 100.695 10.1466 109.607 18.8814C118.505 27.6036 124.679 38.7225 127.379 50.8862V51.8348Z" stroke="white" stroke-opacity="0.3"/>
</svg>
