<svg width="442" height="42" viewBox="0 0 442 42" fill="none" xmlns="http://www.w3.org/2000/svg">
<g clip-path="url(#clip0_537_9172)">
<path d="M9.53619 33.6778V23.539H28.4384V16.5685H0V41.3903H42.3175V33.6625L9.53619 33.6778ZM0 0.448242V7.41874H41.9311V0.448242H0Z" fill="white"/>
<path d="M53.5073 41.4057V0.448242H60.0142L88.808 24.59C89.7817 25.3937 90.6472 26.1355 91.3891 26.8619C92.1182 27.5457 92.8047 28.2734 93.4447 29.0412C93.2901 26.7537 93.1974 25.1155 93.1356 24.1727C93.0737 23.2299 93.0583 22.4726 93.0583 21.9625V0.448242H101.621V41.3903H95.1139L65.099 16.043C64.3726 15.3939 63.739 14.822 63.198 14.2965C62.6558 13.8091 62.1399 13.2931 61.6525 12.751C61.7761 14.0183 61.8688 15.2239 61.9307 16.3367C61.9925 17.4495 62.0389 18.4387 62.0389 19.2578V41.3903L53.5073 41.4057Z" fill="white"/>
<path d="M113.027 41.4056V0.463623H122.548V41.4056H113.027Z" fill="white"/>
<path d="M180.182 2.48831C178.76 1.13851 176.081 0.463623 172.145 0.463623H143.923C139.935 0.463623 137.246 1.14368 135.855 2.50378C134.464 3.87933 133.753 6.42951 133.753 10.1389V24.5899H143.289V7.78957H173.041V10.3707H182.315V9.76794C182.299 6.25951 181.542 3.81749 180.182 2.48831ZM157.477 17.6349V24.5899H173.057V33.6932H133.846C133.824 35.7693 134.542 37.7853 135.87 39.3809C137.261 40.741 139.951 41.4056 143.923 41.4056H172.16C176.148 41.4056 178.822 40.741 180.228 39.3809C181.635 38.0208 182.315 35.4706 182.315 31.6531V17.5885L157.477 17.6349Z" fill="white"/>
<path d="M193.504 41.421V0.463623H201.232L220.521 25.1926L239.392 0.463623H247.027V41.4056H238.187V16.1202C238.191 15.5005 238.228 14.8815 238.295 14.2655C238.295 13.5082 238.434 12.7199 238.542 11.7462C238.017 12.8126 237.568 13.6782 237.182 14.3582C236.796 15.0383 236.44 15.6102 236.131 16.0429L220.753 36.5062H218.852L203.396 15.9657C202.871 15.2621 202.386 14.5294 201.943 13.771C201.564 13.132 201.234 12.4655 200.954 11.7772C201.031 12.6272 201.093 13.3227 201.124 14.111C201.155 14.8992 201.124 15.471 201.124 16.1202V41.421H193.504Z" fill="white"/>
<path d="M341.09 7.80496V41.4364H331.554V7.80496H312.76V0.479004H359.946V7.78948L341.09 7.80496Z" fill="white"/>
<path d="M371.167 41.4366V0.494629H380.688V41.4366H371.167Z" fill="white"/>
<path d="M314.367 41.421H303.688L301.787 38.0208V38.0053L301.725 37.8817L292.189 20.1541L285.975 8.42327L276.872 25.0844H285.759L289.747 32.4722H272.792L268.047 41.421H258.542L281.71 0.463623L290.906 0.479079L314.367 41.421Z" fill="white"/>
<path d="M442.015 0.494629L428.986 14.2347C428.641 14.5985 428.227 14.8904 427.769 15.0937C427.311 15.297 426.816 15.4076 426.315 15.4191C425.814 15.4306 425.315 15.3427 424.848 15.1607C424.38 14.9786 423.954 14.7059 423.592 14.3583C422.88 13.6758 422.46 12.7443 422.42 11.759C422.38 10.7737 422.722 9.8109 423.376 9.07248L431.104 0.494629H442.015Z" fill="white"/>
<path d="M442.015 41.8847L428.986 28.1447C428.641 27.7808 428.227 27.4889 427.769 27.2856C427.311 27.0823 426.816 26.9717 426.315 26.9602C425.814 26.9487 425.315 27.0366 424.848 27.2186C424.38 27.4007 423.954 27.6734 423.592 28.021C422.88 28.7035 422.46 29.635 422.42 30.6204C422.38 31.6057 422.722 32.5684 423.376 33.3068L431.104 41.8847H442.015Z" fill="white"/>
<path d="M415.71 16.0428C414.76 16.2282 413.886 16.6889 413.196 17.3678C412.506 18.0466 412.031 18.9135 411.831 19.8603C411.423 22.2712 410.303 24.505 408.616 26.2745L406.158 28.732C404.391 30.4217 402.156 31.5416 399.744 31.9467H399.667C398.72 32.152 397.854 32.6303 397.175 33.3225C396.497 34.0147 396.036 34.8904 395.85 35.8415C395.688 36.6431 395.728 37.4722 395.964 38.2549C396.201 39.0377 396.627 39.7498 397.205 40.328C397.783 40.9062 398.496 41.3325 399.278 41.5691C400.061 41.8056 400.89 41.845 401.692 41.6838C402.643 41.4974 403.519 41.0365 404.211 40.3581C404.903 39.6797 405.381 38.8134 405.587 37.8662C405.992 35.4808 407.088 33.2668 408.739 31.4985L411.197 29.041C412.976 27.3619 415.214 26.2486 417.626 25.8418C418.574 25.6364 419.44 25.1581 420.118 24.4659C420.797 23.7737 421.258 22.898 421.444 21.9469C421.611 21.1515 421.581 20.3271 421.355 19.5463C421.129 18.7655 420.714 18.0522 420.148 17.4691C419.582 16.886 418.881 16.451 418.107 16.2023C417.333 15.9536 416.51 15.8988 415.71 16.0428Z" fill="white"/>
<path d="M401.676 0.0928128C402.626 0.282839 403.5 0.744911 404.191 1.42273C404.883 2.10055 405.362 2.9649 405.571 3.9104V3.98766C405.97 6.39821 407.085 8.63298 408.77 10.4017L411.243 12.8592C413.011 14.5489 415.246 15.6689 417.657 16.074C418.605 16.2755 419.474 16.7503 420.155 17.4397C420.836 18.1291 421.3 19.003 421.49 19.9534C421.648 20.7564 421.605 21.5857 421.366 22.3684C421.127 23.1511 420.7 23.863 420.121 24.4417C419.543 25.0203 418.831 25.4478 418.048 25.6866C417.265 25.9253 416.436 25.9681 415.633 25.811C414.682 25.6208 413.809 25.1565 413.119 24.4753C412.43 23.7942 411.955 22.926 411.753 21.978C411.348 19.5663 410.228 17.3318 408.539 15.5639L406.081 13.1064C404.31 11.4131 402.069 10.2929 399.652 9.89172C398.706 9.68931 397.84 9.21388 397.161 8.52435C396.483 7.83483 396.021 6.96146 395.834 6.01234C395.662 5.20582 395.693 4.36912 395.924 3.5775C396.155 2.78588 396.58 2.06413 397.159 1.47716C397.738 0.890185 398.454 0.456427 399.243 0.214786C400.031 -0.0268546 400.868 -0.0687973 401.676 0.0928128Z" fill="#F1DB14"/>
</g>
<defs>
<clipPath id="clip0_537_9172">
<rect width="442" height="41.8847" fill="white"/>
</clipPath>
</defs>
</svg>
